<svg width="32" height="32" viewBox="0 0 32 32" fill="none" xmlns="http://www.w3.org/2000/svg">
<path d="M13.4836 5.36211C14.1117 4.0533 15.6819 3.50145 16.9907 4.12953C18.2995 4.75761 18.8514 6.32778 18.2233 7.6366L9.04193 26.769C8.41385 28.0778 6.84368 28.6297 5.53486 28.0016C4.22604 27.3735 3.6742 25.8033 4.30228 24.4945L13.4836 5.36211Z" fill="white"/>
<path d="M18.3976 5.14907C17.7696 3.84026 16.1994 3.28841 14.8906 3.91649C13.5818 4.54457 13.0299 6.11474 13.658 7.42356L16.8689 14.1145C17.4969 15.4233 19.0671 15.9751 20.3759 15.3471C21.6848 14.719 22.2366 13.1488 21.6085 11.84L18.3976 5.14907Z" fill="white"/>
<path d="M24.5691 17.7205C23.941 16.4117 22.3708 15.8598 21.062 16.4879C19.7532 17.116 19.2013 18.6862 19.8294 19.995L23.0403 26.6859C23.6684 27.9947 25.2385 28.5466 26.5474 27.9185C27.8562 27.2904 28.408 25.7202 27.7799 24.4114L24.5691 17.7205Z" fill="white"/>
<path d="M14.3202 16.5447C15.7717 16.5164 16.9712 17.6702 16.9995 19.1216C17.0277 20.573 15.874 21.7726 14.4226 21.8008L4.27973 21.9983C2.82828 22.0266 1.62874 20.8729 1.60048 19.4214C1.57222 17.97 2.72594 16.7704 4.17739 16.7422L14.3202 16.5447Z" fill="white"/>
<path d="M25.7588 16.2209C27.2103 16.1926 28.4098 17.3463 28.4381 18.7978C28.4663 20.2492 27.3126 21.4488 25.8612 21.477L22.5654 21.5412C21.114 21.5694 19.9144 20.4157 19.8862 18.9643C19.8579 17.5128 21.0116 16.3133 22.4631 16.285L25.7588 16.2209Z" fill="white"/>
</svg>
