<svg width="148" height="28" viewBox="0 0 148 28" fill="none" xmlns="http://www.w3.org/2000/svg">
<path fill-rule="evenodd" clip-rule="evenodd" d="M8.20996 10.0328C5.455 10.0328 3.53059 12.0862 3.53059 15.0262C3.53059 17.9472 5.455 19.9871 8.20996 19.9871C9.429 19.9871 10.5404 19.5283 11.5128 18.6237C12.4691 17.7007 12.9523 16.4914 12.9523 15.0262C12.9523 13.5602 12.4691 12.3507 11.5158 11.4312C10.5538 10.5034 9.44139 10.0328 8.20996 10.0328ZM7.48306 23.1056C5.462 23.1056 3.7449 22.3562 2.23294 20.8143C0.730406 19.2818 0 17.3885 0 15.0262C0 12.6628 0.730406 10.7695 2.23294 9.2379C3.71501 7.69576 5.48085 6.91487 7.48306 6.91487C9.53804 6.91487 11.1889 7.463 12.5305 8.59128L12.9523 8.94594V7.38873H16.6092V22.6317H13.928C13.3898 22.6317 12.9523 22.1942 12.9523 21.6565V21.1229L12.5353 21.4563C11.1674 22.551 9.4675 23.1056 7.48306 23.1056ZM41.1208 22.6318V13.8894C41.1208 11.7303 39.7418 10.2226 37.7679 10.2226C35.2762 10.2226 33.8472 12.0766 33.8472 15.3099V22.6318H30.1901V13.8894C30.1901 11.7303 28.8116 10.2226 26.8377 10.2226C24.3498 10.2226 22.9797 12.0292 22.9797 15.3099V22.6318H19.3229V7.38881H21.9416C22.514 7.38881 22.9797 7.85433 22.9797 8.42641V9.04558L23.4178 8.60778C24.542 7.48434 26.0642 6.91495 27.9434 6.91495C30.1341 6.91495 31.8054 7.74777 32.9114 9.39055L33.1066 9.68009L33.3249 9.4075C34.6487 7.75369 36.5157 6.91495 38.8739 6.91495C40.4808 6.91495 41.8757 7.4951 43.0204 8.63953C44.1662 9.75462 44.7461 11.2333 44.7461 13.037V22.6318H41.1208ZM47.4597 28V7.38873H50.1096C50.6648 7.38873 51.1163 7.84026 51.1163 8.39485V8.94594L51.5381 8.59128C52.8799 7.463 54.5308 6.91487 56.5855 6.91487C58.567 6.91487 60.3223 7.69576 61.8023 9.23601C63.307 10.7698 64.0686 12.7175 64.0686 15.0262C64.0686 17.3885 63.3382 19.2818 61.8359 20.8143C60.324 22.3562 58.6066 23.1056 56.5855 23.1056C54.6013 23.1056 52.9015 22.551 51.5333 21.4563L51.1163 21.1229V28H47.4597ZM55.8586 10.0328C54.6264 10.0328 53.5142 10.5034 52.5531 11.4312C51.5998 12.351 51.1163 13.5605 51.1163 15.0262C51.1163 16.4911 51.5998 17.7007 52.5531 18.6204C53.5277 19.5283 54.639 19.9871 55.8586 19.9871C58.6138 19.9871 60.5383 17.9472 60.5383 15.0262C60.5383 12.0862 58.6138 10.0328 55.8586 10.0328ZM66.7821 22.6316V2.68593e-05H70.4389V22.6316H66.7821ZM75.8856 4.41271C74.5697 4.41271 73.6147 3.49808 73.6147 2.23767C73.6147 1.00391 74.6335 0.000215185 75.8856 0.000215185C77.1375 0.000215185 78.1563 1.00391 78.1563 2.23767C78.1563 3.47763 77.1803 4.41271 75.8856 4.41271ZM74.0571 22.6318V7.38881H77.7137V22.6318H74.0571ZM116.269 22.6318V14.3786C116.269 12.2714 114.554 10.557 112.445 10.557C110.337 10.557 108.622 12.2714 108.622 14.3786V22.6318H104.978V14.3786C104.978 10.2632 108.328 6.91495 112.445 6.91495C112.515 6.91495 112.585 6.91602 112.656 6.91791C116.657 7.02743 119.913 10.4464 119.913 14.5393V22.6318H116.269ZM91.3737 27.9999L93.7903 22.3835L88.6139 10.2856H84.9848V22.6318H81.3279V10.2856H79.3626L80.236 7.35711H81.3279V5.71111C81.3279 2.24177 83.6699 0 87.2947 0H88.3988L89.5581 2.80093H87.5526C86.0407 2.80093 84.9848 3.99756 84.9848 5.71111V7.35711H91.4445L95.7806 17.8313L100.314 7.35711H104.399L95.4592 27.9999H91.3737Z" fill="#F2F4F7"/>
<path d="M132.506 13.641V15.3208H124.074V13.641H132.506ZM124.395 6.94293V22.5217H122.33V6.94293H124.395ZM134.303 6.94293V22.5217H132.249V6.94293H134.303Z" fill="#1570EF"/>
<path d="M136.658 6.94293H141.816C142.985 6.94293 143.973 7.12126 144.779 7.47792C145.593 7.83458 146.21 8.36243 146.63 9.06148C147.058 9.75339 147.272 10.6058 147.272 11.6187C147.272 12.332 147.126 12.9847 146.834 13.5768C146.548 14.1617 146.135 14.661 145.593 15.0747C145.058 15.4813 144.416 15.7845 143.667 15.9842L143.089 16.2089H138.242L138.22 14.529H141.88C142.622 14.529 143.239 14.4006 143.731 14.1438C144.223 13.8799 144.594 13.5268 144.844 13.0846C145.093 12.6423 145.218 12.1537 145.218 11.6187C145.218 11.0195 145.1 10.4952 144.865 10.0459C144.63 9.59646 144.259 9.25051 143.752 9.00798C143.253 8.75832 142.607 8.63349 141.816 8.63349H138.723V22.5217H136.658V6.94293ZM145.764 22.5217L141.976 15.4599L144.127 15.4492L147.968 22.3933V22.5217H145.764Z" fill="#1570EF"/>
</svg>
