<svg width="40" height="40" viewBox="0 0 40 40" fill="none" xmlns="http://www.w3.org/2000/svg">
<circle cx="20" cy="20" r="20" fill="#F5FAFF"/>
<circle cx="20.0004" cy="19.9997" r="17.931" fill="#F5FAFF"/>
<path fill-rule="evenodd" clip-rule="evenodd" d="M19.3019 14.7826C16.1805 14.7826 14.0002 17.1091 14.0002 20.4402C14.0002 23.7497 16.1805 26.0609 19.3019 26.0609C20.6831 26.0609 21.9423 25.5411 23.044 24.5161C24.1275 23.4704 24.675 22.1003 24.675 20.4402C24.675 18.7793 24.1275 17.4088 23.0474 16.3671C21.9575 15.3158 20.6971 14.7826 19.3019 14.7826ZM18.4783 29.5942C16.1885 29.5942 14.243 28.7451 12.5299 26.9981C10.8276 25.2619 10 23.1167 10 20.4402C10 17.7625 10.8276 15.6174 12.5299 13.882C14.2091 12.1348 16.2098 11.25 18.4783 11.25C20.8066 11.25 22.6771 11.871 24.1971 13.1494L24.675 13.5512V11.7869H28.8183V29.0573H25.7805C25.1707 29.0573 24.675 28.5615 24.675 27.9524V27.3478L24.2025 27.7256C22.6527 28.9658 20.7267 29.5942 18.4783 29.5942Z" fill="#101828"/>
</svg>
