<svg width="456" height="242" viewBox="0 0 456 242" fill="none" xmlns="http://www.w3.org/2000/svg">
<g opacity="0.9">
<path d="M337.526 197.907L109.503 191.373C98.8915 191.066 90.1652 182.954 89.1128 172.386L78.1063 63.6368C76.8785 51.3148 86.4379 40.5715 98.8038 40.3961L352.611 36.888C365.415 36.7126 375.457 47.8945 373.878 60.6112L359.1 179.446C357.741 190.233 348.401 198.258 337.526 197.907Z" fill="#EFF8FF"/>
<mask id="mask0_393_4497" style="mask-type:alpha" maskUnits="userSpaceOnUse" x="78" y="36" width="297" height="162">
<path d="M337.526 197.907L109.503 191.373C98.8915 191.066 90.1652 182.954 89.1128 172.386L78.1063 63.6368C76.8785 51.3148 86.4379 40.5715 98.8038 40.3961L352.611 36.888C365.415 36.7126 375.457 47.8945 373.878 60.6112L359.1 179.446C357.741 190.233 348.401 198.258 337.526 197.907Z" fill="#EAF9F3"/>
</mask>
<g mask="url(#mask0_393_4497)">
<path d="M151.424 217.684H-30.7748C-34.4144 217.684 -37.3524 214.746 -37.3524 211.106V107.75C-37.3524 104.111 -34.4144 101.173 -30.7748 101.173H151.424C155.064 101.173 158.002 104.111 158.002 107.75V211.062C158.002 214.702 155.064 217.684 151.424 217.684Z" stroke="#2E90FA" stroke-width="1.8" stroke-miterlimit="10" stroke-linecap="round" stroke-linejoin="round"/>
<path d="M392.207 210.711H208.43C204.79 210.711 201.852 207.773 201.852 204.134V53.1565C201.852 49.5169 204.79 46.5789 208.43 46.5789H392.207C395.847 46.5789 398.785 49.5169 398.785 53.1565V204.134C398.785 207.773 395.847 210.711 392.207 210.711Z" stroke="#2E90FA" stroke-width="1.8" stroke-miterlimit="10" stroke-linecap="round" stroke-linejoin="round"/>
<path d="M101.084 101.173H92.1823C91.2176 101.173 90.4283 100.471 90.2967 99.5065L89.5951 93.192C89.4636 92.0958 90.3406 91.0872 91.4807 91.0872H101.786C102.926 91.0872 103.759 92.0519 103.671 93.192L102.97 99.5065C102.838 100.471 102.049 101.173 101.084 101.173Z" stroke="#2E90FA" stroke-width="1.8" stroke-miterlimit="10" stroke-linecap="round" stroke-linejoin="round"/>
<path d="M95.5589 91.1311C95.5589 91.1311 92.0509 90.7803 91.3492 86.0444C91.3492 86.0444 94.5065 86.9653 95.515 89.2017C95.515 89.2017 95.9536 84.2027 98.3215 83.7203C98.3215 83.7203 99.3739 87.4476 97.7076 89.2893C97.7076 89.2893 98.9792 87.1845 102.224 87.2284C102.224 87.2284 101.391 90.2102 98.1899 91.0872" fill="#2E90FA"/>
<path d="M150.065 122.967H110.512C109.503 122.967 108.67 122.133 108.67 121.125V109.11C108.67 108.101 109.503 107.268 110.512 107.268H150.065C151.073 107.268 151.907 108.101 151.907 109.11V121.125C151.907 122.133 151.073 122.967 150.065 122.967Z" stroke="#2E90FA" stroke-width="1.8" stroke-miterlimit="10" stroke-linecap="round" stroke-linejoin="round"/>
<path d="M134.805 111.522H125.684C125.333 111.522 125.026 111.215 125.026 110.864C125.026 110.513 125.333 110.206 125.684 110.206H134.805C135.156 110.206 135.462 110.513 135.462 110.864C135.462 111.215 135.199 111.522 134.805 111.522Z" fill="#2E90FA"/>
<path d="M150.065 143.05H110.512C109.503 143.05 108.67 142.217 108.67 141.208V129.193C108.67 128.185 109.503 127.352 110.512 127.352H150.065C151.073 127.352 151.907 128.185 151.907 129.193V141.208C151.907 142.217 151.073 143.05 150.065 143.05Z" stroke="#2E90FA" stroke-width="1.8" stroke-miterlimit="10" stroke-linecap="round" stroke-linejoin="round"/>
<path d="M134.805 131.605H125.684C125.333 131.605 125.026 131.298 125.026 130.947C125.026 130.597 125.333 130.29 125.684 130.29H134.805C135.156 130.29 135.462 130.597 135.462 130.947C135.462 131.298 135.199 131.605 134.805 131.605Z" fill="#2E90FA"/>
<path d="M353.137 157.258H313.583C312.575 157.258 311.742 156.424 311.742 155.416V143.401C311.742 142.392 312.575 141.559 313.583 141.559H353.137C354.145 141.559 354.978 142.392 354.978 143.401V155.416C355.022 156.424 354.189 157.258 353.137 157.258Z" stroke="#2E90FA" stroke-width="1.8" stroke-miterlimit="10" stroke-linecap="round" stroke-linejoin="round"/>
<path d="M337.921 145.769H328.8C328.449 145.769 328.142 145.462 328.142 145.111C328.142 144.76 328.449 144.453 328.8 144.453H337.921C338.271 144.453 338.578 144.76 338.578 145.111C338.578 145.506 338.271 145.769 337.921 145.769Z" fill="#2E90FA"/>
<path d="M302.358 157.258H262.804C261.796 157.258 260.963 156.424 260.963 155.416V143.401C260.963 142.392 261.796 141.559 262.804 141.559H302.358C303.366 141.559 304.199 142.392 304.199 143.401V155.416C304.243 156.424 303.41 157.258 302.358 157.258Z" stroke="#2E90FA" stroke-width="1.8" stroke-miterlimit="10" stroke-linecap="round" stroke-linejoin="round"/>
<path d="M287.141 145.769H278.02C277.67 145.769 277.363 145.462 277.363 145.111C277.363 144.76 277.67 144.453 278.02 144.453H287.141C287.492 144.453 287.799 144.76 287.799 145.111C287.799 145.506 287.492 145.769 287.141 145.769Z" fill="#2E90FA"/>
<path d="M99.6367 122.967H60.0835C59.075 122.967 58.2418 122.133 58.2418 121.125V109.11C58.2418 108.101 59.075 107.268 60.0835 107.268H99.6367C100.645 107.268 101.478 108.101 101.478 109.11V121.125C101.478 122.133 100.645 122.967 99.6367 122.967Z" stroke="#2E90FA" stroke-width="1.8" stroke-miterlimit="10" stroke-linecap="round" stroke-linejoin="round"/>
<path d="M84.3765 111.522H75.2556C74.9048 111.522 74.5978 111.215 74.5978 110.864C74.5978 110.513 74.9048 110.206 75.2556 110.206H84.3765C84.7273 110.206 85.0343 110.513 85.0343 110.864C85.0343 111.215 84.7712 111.522 84.3765 111.522Z" fill="#2E90FA"/>
<path d="M99.6367 143.05H60.0835C59.075 143.05 58.2418 142.217 58.2418 141.208V129.193C58.2418 128.185 59.075 127.352 60.0835 127.352H99.6367C100.645 127.352 101.478 128.185 101.478 129.193V141.208C101.478 142.217 100.645 143.05 99.6367 143.05Z" stroke="#2E90FA" stroke-width="1.8" stroke-miterlimit="10" stroke-linecap="round" stroke-linejoin="round"/>
<path d="M84.3765 131.605H75.2556C74.9048 131.605 74.5978 131.298 74.5978 130.947C74.5978 130.597 74.9048 130.29 75.2556 130.29H84.3765C84.7273 130.29 85.0343 130.597 85.0343 130.947C85.0343 131.298 84.7712 131.605 84.3765 131.605Z" fill="#2E90FA"/>
<path d="M410.756 92.5781H211.236C210.14 92.5781 209.219 91.6573 209.219 90.561V55.6122C209.219 54.5159 210.14 53.595 211.236 53.595H410.756C411.852 53.595 412.773 54.5159 412.773 55.6122V90.561C412.773 91.6573 411.852 92.5781 410.756 92.5781Z" stroke="#2E90FA" stroke-width="1.8" stroke-miterlimit="10" stroke-linecap="round" stroke-linejoin="round"/>
<path d="M410.756 135.946H211.236C210.14 135.946 209.219 135.025 209.219 133.929V98.9803C209.219 97.8841 210.14 96.9632 211.236 96.9632H410.756C411.852 96.9632 412.773 97.8841 412.773 98.9803V133.929C412.773 135.025 411.852 135.946 410.756 135.946Z" stroke="#2E90FA" stroke-width="1.8" stroke-miterlimit="10" stroke-linecap="round" stroke-linejoin="round"/>
<path d="M226.979 70.5214H222.638V92.5782H226.979V70.5214Z" stroke="#2E90FA" stroke-width="1.8" stroke-miterlimit="10" stroke-linecap="round" stroke-linejoin="round"/>
<path d="M231.451 76.5288H226.935V92.5781H231.451V76.5288Z" stroke="#2E90FA" stroke-width="1.8" stroke-miterlimit="10" stroke-linecap="round" stroke-linejoin="round"/>
<path d="M357.829 113.846H353.487V135.902H357.829V113.846Z" stroke="#2E90FA" stroke-width="1.8" stroke-miterlimit="10" stroke-linecap="round" stroke-linejoin="round"/>
<path d="M362.301 119.853H357.785V135.902H362.301V119.853Z" stroke="#2E90FA" stroke-width="1.8" stroke-miterlimit="10" stroke-linecap="round" stroke-linejoin="round"/>
<path d="M348.971 113.846H344.629V135.902H348.971V113.846Z" stroke="#2E90FA" stroke-width="1.8" stroke-miterlimit="10" stroke-linecap="round" stroke-linejoin="round"/>
<path d="M344.688 114.662L340.548 113.355L333.907 134.388L338.047 135.695L344.688 114.662Z" stroke="#2E90FA" stroke-width="1.8" stroke-miterlimit="10" stroke-linecap="round" stroke-linejoin="round"/>
<path d="M353.487 119.853H348.971V135.902H353.487V119.853Z" stroke="#2E90FA" stroke-width="1.8" stroke-miterlimit="10" stroke-linecap="round" stroke-linejoin="round"/>
<path d="M299.244 70.5214H294.903V92.5782H299.244V70.5214Z" stroke="#2E90FA" stroke-width="1.8" stroke-miterlimit="10" stroke-linecap="round" stroke-linejoin="round"/>
<path d="M303.761 76.5288H299.244V92.5781H303.761V76.5288Z" stroke="#2E90FA" stroke-width="1.8" stroke-miterlimit="10" stroke-linecap="round" stroke-linejoin="round"/>
<path d="M256.403 70.5214H252.061V92.5782H256.403V70.5214Z" stroke="#2E90FA" stroke-width="1.8" stroke-miterlimit="10" stroke-linecap="round" stroke-linejoin="round"/>
<path d="M252.129 71.3024L247.989 69.9953L241.348 91.0286L245.487 92.3358L252.129 71.3024Z" stroke="#2E90FA" stroke-width="1.8" stroke-miterlimit="10" stroke-linecap="round" stroke-linejoin="round"/>
<path d="M260.875 76.5288H256.358V92.5781H260.875V76.5288Z" stroke="#2E90FA" stroke-width="1.8" stroke-miterlimit="10" stroke-linecap="round" stroke-linejoin="round"/>
<path d="M357.741 73.3716L358.223 66.8379C358.267 66.3994 357.916 66.0486 357.478 66.0486H355.592H353.707C353.268 66.0486 352.961 66.3994 352.961 66.8379L353.444 73.3716C353.444 73.3716 349.497 75.9149 349.541 78.0198C349.585 79.6422 350.549 87.4038 350.988 90.8241C351.12 91.7888 351.909 92.4904 352.874 92.4904H355.592H358.311C359.276 92.4904 360.065 91.7888 360.197 90.8241C360.635 87.4038 361.6 79.6422 361.644 78.0198C361.687 75.9149 357.741 73.3716 357.741 73.3716Z" fill="#2E90FA"/>
<path d="M340.288 73.3716L340.771 66.8379C340.814 66.3994 340.464 66.0486 340.025 66.0486H338.139H336.254C335.815 66.0486 335.508 66.3994 335.508 66.8379L335.991 73.3716C335.991 73.3716 332.044 75.9149 332.088 78.0198C332.132 79.6422 333.097 87.4038 333.535 90.8241C333.667 91.7888 334.456 92.4904 335.421 92.4904H338.139H340.858C341.823 92.4904 342.612 91.7888 342.744 90.8241C343.182 87.4038 344.147 79.6422 344.191 78.0198C344.235 75.9149 340.288 73.3716 340.288 73.3716Z" fill="#2E90FA"/>
<path d="M77.4924 177.341H496.616" stroke="#2E90FA" stroke-width="1.8" stroke-miterlimit="10" stroke-linecap="round" stroke-linejoin="round"/>
</g>
<path d="M121.431 139.586L115.862 217.464C115.818 218.122 116.344 218.692 117.002 218.692C117.616 218.692 118.098 218.254 118.142 217.64L124.851 139.586H121.431Z" fill="#475467"/>
<path d="M346.866 139.586L352.435 217.464C352.479 218.122 351.953 218.692 351.295 218.692C350.681 218.692 350.199 218.254 350.155 217.64L343.446 139.586H346.866Z" fill="#475467"/>
<path d="M170.193 43.2025C170.193 43.2025 174.095 51.1394 176.902 58.2871C179.708 65.4347 180.19 72.0561 177.472 73.4593C173.657 75.4326 169.403 75.5642 164.492 66.2678C159.581 56.9715 163.264 35.9671 170.193 43.2025Z" fill="#5D5FEF"/>
<path d="M149.188 188.172C149.232 188.698 147.653 197.6 147.741 198.258C147.872 198.916 141.032 200.626 137.743 197.688C137.743 197.688 138.225 186.067 138.225 184.313C138.225 182.603 148.881 183.261 149.188 188.172Z" fill="#FFE7D0"/>
<path d="M147.873 196.679C147.873 196.679 148.618 199.968 149.714 201.985C150.811 204.002 156.862 209.659 156.204 211.588C155.546 213.518 149.977 213.693 145.68 213.518C141.383 213.342 139.453 211.852 137.743 208.782C135.989 205.712 137.173 203.651 137.392 197.688C137.392 197.688 137.524 196.679 137.787 196.504C137.787 196.504 138.664 198.039 139.673 198.17C140.681 198.258 141.69 195.846 144.145 195.583C146.601 195.364 146.908 197.776 147.171 197.776C147.478 197.776 147.785 197.381 147.873 196.679Z" fill="#475467"/>
<path d="M151.863 206.107C151.863 206.107 148.793 204.792 143.093 206.94" stroke="#1D2939" stroke-width="1.8" stroke-miterlimit="10" stroke-linecap="round" stroke-linejoin="round"/>
<path d="M150.767 203.695C150.767 203.695 147.697 202.38 141.996 204.529" stroke="#1D2939" stroke-width="1.8" stroke-miterlimit="10" stroke-linecap="round" stroke-linejoin="round"/>
<path d="M171.113 186.637C171.157 187.164 169.578 196.065 169.666 196.723C169.798 197.381 162.957 199.091 159.668 196.153C159.668 196.153 160.151 184.533 160.151 182.779C160.151 181.068 170.85 181.726 171.113 186.637Z" fill="#FFE7D0"/>
<path d="M169.842 195.101C169.842 195.101 170.587 198.389 171.683 200.407C172.78 202.424 178.831 208.08 178.173 210.01C177.515 211.939 171.946 212.115 167.649 211.939C163.352 211.764 161.422 210.273 159.712 207.203C157.958 204.134 159.142 202.073 159.361 196.109C159.361 196.109 159.493 195.101 159.756 194.925C159.756 194.925 160.633 196.46 161.642 196.592C162.65 196.679 163.659 194.267 166.114 194.004C168.57 193.785 168.877 196.197 169.14 196.197C169.447 196.241 169.754 195.846 169.842 195.101Z" fill="#475467"/>
<path d="M173.788 204.572C173.788 204.572 170.718 203.257 165.018 205.406" stroke="#1D2939" stroke-width="1.8" stroke-miterlimit="10" stroke-linecap="round" stroke-linejoin="round"/>
<path d="M172.736 202.161C172.736 202.161 169.666 200.845 163.966 202.994" stroke="#1D2939" stroke-width="1.8" stroke-miterlimit="10" stroke-linecap="round" stroke-linejoin="round"/>
<path d="M129.587 92.0081C129.587 92.0081 128.271 99.682 132.042 117.705C133.182 123.186 134.103 130.333 134.761 137.832C136.296 154.934 134.98 172.386 134.191 179.271C133.051 189.137 138.094 191.023 143.531 191.461C148.969 191.9 150.986 189.4 151.249 186.638C151.512 183.875 154.757 147.04 155.985 138.709C157.256 130.377 157.344 118.976 156.949 117.31C156.555 115.644 161.291 115.994 159.317 95.3846C157.388 74.6872 131.165 86.5268 129.587 92.0081Z" fill="#101828"/>
<path d="M167.342 93.0167C167.342 93.0167 173.92 121.169 174.709 129.939C175.498 138.709 173.876 181.726 173.92 184.313C174.007 186.901 171.595 189.225 165.719 189.356C159.843 189.488 157.476 185.585 157.519 183.48C157.651 176.464 157.739 148.531 157.3 144.234C156.862 139.937 150.459 118.801 149.188 116.784C147.916 114.723 145.11 99.5942 150.635 96.9632C156.16 94.3322 164.842 90.3856 167.342 93.0167Z" fill="#101828"/>
<path d="M159.054 36.8442C159.054 36.8442 147.829 36.4495 142.61 35.7479C137.392 35.0463 127.657 35.0024 123.799 42.8517C119.94 50.7009 131.911 54.5598 131.604 60.1288C131.341 65.6539 130.508 75.1257 130.508 75.1257C130.508 75.1257 129.411 85.6936 128.184 89.684C126.956 93.6744 129.28 95.6915 130.376 96.0423C131.472 96.3931 142.874 98.7172 151.512 98.2349C160.151 97.7525 167.211 95.7792 167.825 93.8498C168.482 91.9204 167.43 86.2637 167.825 80.3439C168.219 74.424 169.359 64.0753 169.359 60.1288C169.359 56.1822 171.289 46.1843 169.359 42.0624C167.43 37.9404 162.782 36.9757 159.054 36.8442Z" fill="#7879F1"/>
<path d="M144.321 32.196C144.321 32.196 142.523 32.4591 141.909 33.6431C141.514 34.3885 141.032 35.7479 141.076 37.1511C141.12 38.5543 143.224 42.4132 149.32 43.1148C155.459 43.8164 157.607 40.8346 157.871 39.6945C158.134 38.5543 157.695 35.4848 157.257 34.9586C156.862 34.3885 156.204 33.8185 154.012 33.5554C151.863 33.2046 145.022 31.9329 144.321 32.196Z" fill="#5D5FEF"/>
<path d="M153.135 58.8571C153.135 58.8571 154.932 56.9715 155.853 55.5683C156.774 54.1651 158.002 52.6303 159.01 52.0603C160.019 51.4464 162.124 51.0956 162.694 50.7886C163.308 50.4817 163.922 51.5779 162.694 52.5865C161.466 53.595 161.992 56.533 160.282 58.1117C158.528 59.6903 153.748 60.655 153.135 58.8571Z" fill="#CEB9B9"/>
<path d="M165.895 32.8976L188.039 31.4505C188.697 31.4067 189.223 31.9767 189.136 32.6345L183.698 66.0486C183.567 66.794 182.997 67.3641 182.251 67.4518L161.071 70.3459C160.414 70.4336 159.843 69.8636 159.887 69.2058L164.36 34.3885C164.404 33.5554 165.062 32.9415 165.895 32.8976Z" fill="#194185"/>
<path d="M181.55 32.9853L173.174 33.4238C172.867 33.4238 172.604 33.1607 172.648 32.8538L172.78 31.9768C172.824 31.626 173.131 31.3629 173.437 31.3629L181.813 30.9243C182.12 30.9243 182.383 31.1875 182.339 31.4944L182.208 32.3714C182.164 32.7222 181.857 32.9415 181.55 32.9853Z" fill="#475467"/>
<path d="M132.7 66.8379C132.7 66.8379 135.463 55.7437 136.164 51.4902C136.866 47.2367 134.191 42.5009 130.069 41.4485C125.245 40.2645 123.754 42.8078 123.754 42.8078C123.754 42.8078 121.825 46.1843 119.896 56.7961C117.966 67.408 116.87 77.2743 123.754 79.6861C130.639 82.0979 144.759 74.2486 149.275 70.8722C153.792 67.5395 155.458 66.0924 156.335 65.8732C157.212 65.6539 160.677 66.5748 162.518 64.5138C164.36 62.4529 165.939 60.8304 166.114 60.8304C166.289 60.8304 170.675 61.4881 171.42 60.9181C172.253 60.2603 171.025 59.6026 170.148 59.471C169.315 59.3395 166.772 58.5063 166.772 58.5063C166.772 58.5063 168.745 57.8924 170.148 57.3662C171.552 56.7961 172.999 56.533 172.911 55.7876C172.823 54.9983 171.946 55.1298 171.069 55.086C170.192 55.0421 169.008 55.3052 169.008 55.3052C169.008 55.3052 171.42 54.6475 172.034 53.9459C172.692 53.2004 172.122 52.6303 170.85 52.7619C169.841 52.8496 168.438 53.2004 168.438 53.2004C168.438 53.2004 170.894 52.9811 170.718 51.8849C170.587 51.1394 168.394 51.5341 166.947 51.7095C165.5 51.8849 163.658 52.2357 162.08 52.6303C161.027 52.8934 160.063 53.2004 159.405 53.5074C157.87 54.2528 154.011 57.9363 153.397 58.6817C152.784 59.4272 145.066 60.655 138.751 62.0582C132.437 63.4176 128.753 64.6015 126.824 66.3994L132.7 66.8379Z" fill="#CEB9B9"/>
<path d="M167.035 51.6656C165.588 51.8411 163.746 52.1919 162.168 52.5865C161.115 52.8496 160.151 53.1566 159.493 53.4635" stroke="#896068" stroke-width="1.8" stroke-miterlimit="10" stroke-linecap="round" stroke-linejoin="round"/>
<path d="M154.713 66.8379C153.617 67.6272 151.951 68.9427 149.32 70.8721C144.803 74.2048 130.683 82.054 123.799 79.6861C116.958 77.2743 118.054 67.408 119.94 56.7961C121.869 46.1843 123.799 42.8078 123.799 42.8078C123.799 42.8078 125.29 40.2645 130.113 41.4485C134.191 42.457 136.91 47.1929 136.208 51.4902C135.77 54.1651 134.498 59.6026 133.621 63.2422C135.156 62.8037 136.91 62.409 138.927 61.9705C143.4 61.0058 148.618 60.0849 151.468 59.3833C151.424 59.5149 150.854 61.8828 151.951 64.1192C152.959 66.3994 154.713 66.8379 154.713 66.8379Z" fill="#5D5FEF"/>
<path d="M119.501 75.5203C119.501 75.5203 119.413 73.1524 122.307 73.4593C125.158 73.7663 132.7 76.485 130.551 79.6861" stroke="#63737A" stroke-width="1.8" stroke-miterlimit="10" stroke-linecap="round" stroke-linejoin="round"/>
<path d="M147.96 60.1726C147.96 60.1726 147.302 62.716 148.486 65.3032C149.67 67.8465 151.819 69.0743 151.819 69.0743" stroke="#63737A" stroke-width="1.8" stroke-miterlimit="10" stroke-linecap="round" stroke-linejoin="round"/>
<path d="M143.97 25.3115C143.97 25.3115 143.838 30.9243 143.487 34.4324C143.136 37.9404 149.67 39.3875 152.827 38.7736C155.985 38.1597 156.467 37.195 156.467 37.195C156.467 37.195 156.204 32.4591 156.467 30.7489C156.73 29.0388 144.013 23.4698 143.97 25.3115Z" fill="#CEB9B9"/>
<path d="M156.38 35.9233C156.336 35.2217 156.336 34.3008 156.336 33.38C153.661 33.5115 151.293 31.0559 149.364 29.0388C148.837 33.2484 152.477 35.9672 156.38 35.9233Z" fill="#896068"/>
<path d="M161.554 17.8569C161.554 17.8569 163.746 16.7168 164.404 13.1211C165.062 9.48146 164.273 4.17555 161.817 3.56164C159.318 2.90389 161.072 10.49 159.405 11.8932C157.739 13.2526 161.554 15.8836 161.554 17.8569Z" fill="#1D2939"/>
<path d="M161.466 11.674C161.466 11.674 162.212 14.6997 161.948 19.1286C161.685 23.6013 162.562 31.1436 157.695 33.3361C152.828 35.5286 146.381 33.2484 143.75 26.0569C141.119 18.8655 141.076 11.7178 145.11 8.64828C149.188 5.5349 160.019 5.9734 161.466 11.674Z" fill="#CEB9B9"/>
<path d="M144.277 20.3125C144.277 20.3125 145.768 19.8302 145.811 17.1553C145.811 14.4366 147.258 12.2002 150.153 12.9895C153.047 13.7788 157.081 16.0152 159.449 15.9713C162.255 15.8836 163.132 12.8579 163.352 9.13065C163.571 5.3595 162.343 3.07927 160.896 3.47393C159.449 3.86858 158.221 5.0964 156.423 2.81617C153.968 -0.253367 151.775 -0.165666 150.021 1.2814C146.951 3.86858 147.653 5.22795 144.847 4.13168C143.224 3.47393 142.084 3.64933 141.295 6.67502C140.505 9.7007 140.812 10.5339 138.927 10.2708C136.997 10.0077 138.225 20.0056 141.295 22.2419C141.339 22.2419 143.707 20.0933 144.277 20.3125Z" fill="#1D2939"/>
<path d="M159.361 21.058C159.537 21.5404 159.624 22.0227 159.756 22.4612C159.887 22.8997 160.019 23.3821 160.15 23.7329C160.238 23.9521 160.37 24.2591 160.37 24.566C160.37 24.873 160.326 25.2238 160.107 25.443C159.712 25.9254 159.142 26.057 158.616 26.0131C159.054 25.75 159.449 25.4431 159.58 25.1361C159.712 24.8291 159.624 24.4783 159.405 24.0837C159.186 23.5575 159.098 23.0751 159.098 22.5489C159.142 22.0227 159.23 21.5404 159.361 21.058Z" fill="#1D2939"/>
<path d="M155.108 17.243C155.502 17.2868 155.809 16.936 155.678 16.5414C155.546 16.1467 155.458 15.7959 155.02 15.7082C154.099 15.4889 152.126 15.6643 150.942 16.5414C149.758 17.4184 150.898 17.5938 152.389 17.2868C153.441 17.1114 154.406 17.1553 155.108 17.243Z" fill="#1D2939"/>
<path d="M153.091 26.0569C155.488 26.0569 157.432 24.0348 157.432 21.5403C157.432 19.0459 155.488 17.0237 153.091 17.0237C150.693 17.0237 148.749 19.0459 148.749 21.5403C148.749 24.0348 150.693 26.0569 153.091 26.0569Z" stroke="#1D2939" stroke-width="1.8" stroke-miterlimit="10" stroke-linecap="round" stroke-linejoin="round"/>
<path d="M162.168 25.6623C163.718 25.6623 164.974 23.8168 164.974 21.5404C164.974 19.2639 163.718 17.4184 162.168 17.4184C160.618 17.4184 159.361 19.2639 159.361 21.5404C159.361 23.8168 160.618 25.6623 162.168 25.6623Z" stroke="#1D2939" stroke-width="1.8" stroke-miterlimit="10" stroke-linecap="round" stroke-linejoin="round"/>
<path d="M159.449 20.6195C159.449 20.6195 158.879 19.8302 157.344 20.6195" stroke="#1D2939" stroke-width="1.8" stroke-miterlimit="10" stroke-linecap="round" stroke-linejoin="round"/>
<path d="M148.925 20.2686L143.706 19.874" stroke="#1D2939" stroke-width="1.8" stroke-miterlimit="10" stroke-linecap="round" stroke-linejoin="round"/>
<path d="M155.722 29.1265C155.722 29.1265 153.749 28.9949 152.74 27.0655" stroke="#1D2939" stroke-width="1.8" stroke-miterlimit="10" stroke-linecap="round" stroke-linejoin="round"/>
<path d="M153.748 23.2067C154.143 23.2505 154.494 22.9436 154.538 22.5051L154.582 22.0665C154.625 21.6719 154.319 21.3211 153.88 21.2772C153.485 21.2334 153.135 21.5403 153.091 21.9788L153.047 22.4173C153.003 22.8559 153.31 23.1628 153.748 23.2067Z" fill="#1D2939"/>
<path d="M160.238 23.3382C160.633 23.3821 160.984 23.0751 161.028 22.6366L161.071 22.1981C161.115 21.8034 160.808 21.4526 160.37 21.4088C159.975 21.3649 159.624 21.6719 159.581 22.1104L159.537 22.5489C159.537 22.9435 159.844 23.2944 160.238 23.3382Z" fill="#1D2939"/>
<path d="M144.101 20.4441C144.101 20.4441 142.829 18.2515 141.119 18.8216C139.409 19.3916 139.453 22.0227 140.286 23.6013C141.338 25.6184 143.75 26.2323 145.022 26.0131" fill="#CEB9B9"/>
<path d="M141.076 22.0227C140.988 21.8034 140.944 21.5842 140.988 21.3211C140.988 21.1895 141.076 21.058 141.163 20.9264C141.295 20.7949 141.47 20.7072 141.646 20.7072C141.953 20.7072 142.259 20.8387 142.435 21.058C142.61 21.2334 142.742 21.4526 142.873 21.6719C143.093 22.0665 143.18 22.4612 143.312 22.812C143.4 22.9874 143.443 23.119 143.531 23.2067C143.619 23.2944 143.838 23.2944 144.057 23.2944C143.926 23.4698 143.707 23.6452 143.4 23.6013C143.093 23.5136 142.917 23.3382 142.742 23.1628C142.479 22.7682 142.303 22.4174 142.128 22.0666C141.953 21.7157 141.777 21.4526 141.602 21.4088C141.558 21.4088 141.514 21.3649 141.47 21.4088C141.426 21.4088 141.382 21.4526 141.339 21.5403C141.251 21.5842 141.163 21.8034 141.076 22.0227Z" fill="#1D2939"/>
<path d="M167.035 58.5502C167.035 58.5502 166.202 58.3309 165.588 58.2871C164.974 58.1994 164.536 58.2871 164.536 58.2871" stroke="#896068" stroke-width="1.8" stroke-miterlimit="10" stroke-linecap="round" stroke-linejoin="round"/>
<path d="M169.052 55.2614C169.052 55.2614 164.579 56.2261 164.185 56.533" stroke="#896068" stroke-width="1.8" stroke-miterlimit="10" stroke-linecap="round" stroke-linejoin="round"/>
<path d="M168.526 53.1566C168.526 53.1566 165.457 53.8143 165.281 53.8582C164.711 54.0336 163.659 54.3405 163.659 54.3405" stroke="#896068" stroke-width="1.8" stroke-miterlimit="10" stroke-linecap="round" stroke-linejoin="round"/>
<path d="M133.621 110.031C133.621 110.031 138.751 107.838 138.751 100.384" stroke="#1D2939" stroke-width="1.8" stroke-miterlimit="10" stroke-linecap="round" stroke-linejoin="round"/>
<path d="M297.314 162.607V165.589C297.314 167.519 287.623 169.097 275.608 169.097C263.637 169.097 253.902 167.519 253.902 165.589V162.607H264.119C267.452 162.257 271.399 162.081 275.608 162.081C279.818 162.081 283.764 162.257 287.097 162.607H297.314Z" fill="#1D2939"/>
<path d="M275.608 166.115C287.596 166.115 297.314 164.545 297.314 162.607C297.314 160.67 287.596 159.099 275.608 159.099C263.621 159.099 253.902 160.67 253.902 162.607C253.902 164.545 263.621 166.115 275.608 166.115Z" fill="#63737A"/>
<path d="M275.608 201.547C275.038 201.547 274.6 201.108 274.6 200.538V166.159H276.661V200.538C276.661 201.108 276.179 201.547 275.608 201.547Z" fill="#1D2939"/>
<path d="M275.608 200.45C275.608 200.45 263.681 201.327 259.91 209.264" stroke="#1D2939" stroke-width="4" stroke-miterlimit="10" stroke-linecap="round" stroke-linejoin="round"/>
<path d="M291.351 209.264C287.536 201.327 275.652 200.45 275.652 200.45C275.652 200.45 273.679 201.985 272.846 211.062" stroke="#1D2939" stroke-width="4" stroke-miterlimit="10" stroke-linecap="round" stroke-linejoin="round"/>
<path d="M273.535 215.161C275.256 214.754 276.321 213.03 275.915 211.31C275.509 209.589 273.785 208.524 272.064 208.93C270.343 209.336 269.278 211.06 269.684 212.781C270.091 214.502 271.815 215.567 273.535 215.161Z" fill="#475467"/>
<path d="M293.594 212.177C294.844 210.927 294.844 208.9 293.594 207.65C292.344 206.4 290.317 206.4 289.067 207.65C287.817 208.9 287.817 210.927 289.067 212.177C290.317 213.427 292.344 213.427 293.594 212.177Z" fill="#475467"/>
<path d="M260.642 213.013C262.362 212.606 263.427 210.882 263.021 209.162C262.615 207.441 260.891 206.376 259.17 206.782C257.45 207.188 256.384 208.912 256.791 210.633C257.197 212.353 258.921 213.419 260.642 213.013Z" stroke="#1D2939" stroke-width="1.8" stroke-miterlimit="10" stroke-linecap="round" stroke-linejoin="round"/>
<path d="M287.448 130.29C289.553 135.332 293.28 143.445 293.236 152.566C293.236 163.616 279.862 168.133 278.502 169.887C277.143 171.684 249.298 173.57 246.448 168.001C243.597 162.388 243.773 156.556 251.403 142.48C256.489 133.052 255.832 130.421 255.876 130.29C255.876 130.29 256.577 131.035 256.884 128.097C257.191 125.159 286.176 127.308 287.448 130.29Z" fill="#1D2939"/>
<path d="M253.068 156.556C250.35 156.995 245.789 158.442 245.307 165.677C244.868 172.912 250.613 200.977 250.701 205.932C250.788 210.887 250.306 211.106 246.929 214.132C243.553 217.157 236.844 220.446 237.414 222.77C237.984 225.094 245.658 227.068 250.701 226.147C255.787 225.226 256.883 219.482 257.848 218.999C258.813 218.517 259.427 216.719 259.558 215.579C259.69 214.395 263.242 174.184 263.593 168.264C264.075 160.941 261.049 155.284 253.068 156.556Z" fill="#FFE7D0"/>
<path d="M259.909 212.158C259.734 214.088 259.602 215.316 259.602 215.535C259.47 216.719 258.857 218.473 257.892 218.955C256.927 219.438 255.831 225.182 250.744 226.103C245.658 227.024 237.984 225.051 237.458 222.726C237.019 220.929 241.009 218.517 244.386 216.105C244.298 216.193 243.334 217.157 244.386 217.377C245.482 217.596 247.455 216.763 251.227 218.868C254.998 220.972 256.094 217.684 256.839 215.447C257.497 213.562 258.813 214.176 259.909 212.158Z" fill="#1D2939"/>
<path d="M266.312 157.872C263.023 160.064 261.707 162.739 261.093 172.825C260.26 186.681 258.769 208.475 258.068 210.799C257.366 213.123 256.489 214.176 255.656 216.5C254.823 218.824 247.763 225.533 248.201 228.076C248.596 230.62 252.674 233.163 255.217 233.996C257.761 234.829 260.786 235.18 262.628 233.996C264.47 232.812 265.391 225.401 265.873 223.647C266.355 221.849 266.882 220.578 267.32 217.464C267.715 214.395 270.96 200.319 272.319 196.285C273.678 192.294 279.774 172.649 279.949 164.975C280.037 157.302 271.135 154.714 266.312 157.872Z" fill="#FFE7D0"/>
<path d="M266.311 157.872C263.022 160.064 261.707 162.739 261.093 172.825C260.26 186.681 258.769 208.475 258.067 210.799C257.366 213.123 256.489 214.176 255.656 216.5" stroke="#E26E85" stroke-width="1.8" stroke-miterlimit="10" stroke-linecap="round" stroke-linejoin="round"/>
<path d="M267.802 214.702C267.539 215.93 267.364 216.894 267.32 217.464C266.925 220.534 266.355 221.849 265.873 223.647C265.39 225.445 264.513 232.856 262.672 233.996C260.83 235.18 257.804 234.829 255.261 233.996C252.718 233.163 248.683 230.62 248.245 228.12C247.938 226.278 251.534 222.288 253.858 219.306C253.726 219.482 252.06 221.981 255.042 224.174C257.629 226.103 262.452 227.287 263.68 224.393C264.908 221.499 265.566 218.78 266.136 217.903C266.706 217.07 267.408 216.149 267.802 214.702Z" fill="#1D2939"/>
<path d="M259.051 225.71C259.394 224.778 258.658 223.65 257.407 223.191C256.157 222.732 254.866 223.115 254.524 224.047C254.181 224.979 254.917 226.107 256.168 226.566C257.418 227.025 258.709 226.642 259.051 225.71Z" fill="white"/>
<path d="M249.297 218.254C249.166 219.175 248.026 219.745 246.798 219.569C245.57 219.394 244.649 218.473 244.781 217.552C244.912 216.631 246.052 216.061 247.28 216.237C248.552 216.412 249.429 217.333 249.297 218.254Z" fill="white"/>
<path d="M256.928 93.6306C256.928 93.6306 250.964 93.7183 246.93 102.62C242.896 111.478 236.494 124.063 237.415 129.369C238.335 134.675 250.57 129.369 256.358 119.415C262.102 109.461 261.576 93.8937 256.928 93.6306Z" fill="#1849A9"/>
<path d="M261.532 75.9149C261.532 75.9149 258.507 75.7395 257.542 71.8368C256.577 67.9341 260.568 63.0667 264.251 61.8828C267.935 60.6988 268.856 62.979 271.267 63.2421C273.679 63.5052 280.125 62.8036 282.712 68.5481C285.299 74.2925 281.002 79.7299 284.291 84.0273C287.58 88.3685 290.342 96.3054 280.651 99.7258C270.96 103.146 259.822 100.471 256.358 94.2883C252.938 88.1054 259.559 84.4658 260.568 81.2647C261.664 78.1075 262.146 77.3181 261.532 75.9149Z" fill="#1D2939"/>
<path d="M271.355 91.3503C271.355 91.3503 262.409 91.2626 257.542 93.1044C256.095 93.6306 254.867 94.5514 254.516 99.1119C254.209 103.234 253.99 103.19 252.85 105.207C251.052 108.452 250.306 112.179 253.771 118.231C256.007 122.177 255.305 129.588 254.955 133.315C254.604 137.086 255.042 138.709 262.278 140.551C269.513 142.392 285.036 140.551 286.79 138.797C288.544 137.043 289.333 119.678 288.983 116.301C288.632 112.925 295.122 103.935 294.639 100.384C294.201 96.8316 289.947 91.9642 271.355 91.3503Z" fill="#1570EF"/>
<path d="M266.444 90.6049C266.444 90.6049 262.409 90.7803 261.094 92.1396C260.173 93.1044 260.918 93.7183 262.015 94.5514C262.76 95.1215 260.129 96.6124 261.488 98.3226C262.497 99.5942 264.777 98.0156 265.654 99.1996C266.663 100.603 266.838 101.129 268.373 101.173C270.302 101.217 270.478 99.1557 271.925 99.375C273.679 99.6381 274.074 100.252 275.345 100.12C277.318 99.9012 277.362 97.9279 277.099 96.7439C276.836 95.56 277.538 95.5161 279.073 95.0776C280.607 94.6391 280.914 91.6573 275.258 90.8241C269.645 89.991 266.444 90.6049 266.444 90.6049Z" fill="white"/>
<path d="M276.442 82.6679C276.442 82.6679 275.521 87.0968 275.608 91.8327C275.608 91.8327 274.074 96.437 268.812 96.13C263.9 95.8669 265.04 91.9204 265.04 91.9204C265.04 91.9204 266.224 87.5353 266.268 86.3952C266.356 85.2551 275.214 81.4839 276.442 82.6679Z" fill="#FFE7D0"/>
<path d="M272.539 87.6669C270.434 89.0701 267.978 89.9033 265.654 89.7279C265.347 90.9118 265.084 91.9204 265.084 91.9204C265.084 91.9204 265.04 92.1397 264.996 92.4905C268.417 92.4028 271.486 90.868 272.539 87.6669Z" fill="#E26E85"/>
<path d="M260.962 71.5299C260.962 71.6614 261.094 75.0379 260.48 78.8091C259.866 82.5802 260.524 88.5439 264.602 89.9471C270.258 91.8765 276.134 88.0177 277.581 82.4048C279.028 76.792 279.774 69.9074 272.582 67.8464C265.347 65.7416 261.357 68.7673 260.962 71.5299Z" fill="#FFE7D0"/>
<path d="M260.743 73.1085C260.743 73.1085 260.436 71.7491 261.708 71.486C262.979 71.2229 264.163 70.6529 265.347 70.1267C266.18 69.732 267.233 69.8636 268.066 71.7053C269.908 75.6518 272.232 81.5716 277.055 79.9053C277.055 79.9053 278.897 80.3 279.423 77.2304C279.949 74.1609 279.73 70.039 274.38 67.5395C269.031 65.0839 262.892 66.7502 261.751 68.0218C259.997 69.9951 260.743 73.1085 260.743 73.1085Z" fill="#1D2939"/>
<path d="M274.994 80.5192C274.994 80.5192 276.967 77.8005 278.809 79.3791C280.651 80.9577 278.108 84.9481 275.564 84.8166" fill="#FFE7D0"/>
<path d="M277.845 85.1235C277.845 84.5096 277.318 83.3695 276.704 83.3695C276.09 83.3695 275.564 84.5096 275.564 85.1235C275.564 85.7374 276.09 86.2636 276.704 86.2636C277.318 86.2636 277.845 85.7813 277.845 85.1235Z" fill="#1570EF"/>
<path d="M278.152 81.2209C277.976 81.1332 277.845 81.0016 277.713 80.9577C277.581 80.87 277.45 80.9139 277.406 80.9577C277.362 80.9577 277.362 81.0016 277.318 81.0455C277.275 81.0893 277.231 81.1331 277.231 81.177C277.187 81.2647 277.187 81.3524 277.143 81.484C277.099 81.7471 277.143 82.0979 277.055 82.4925C277.011 82.7118 276.88 82.931 276.661 83.0626C276.441 83.1941 276.222 83.1064 276.047 83.0626C276.222 82.9749 276.354 82.8872 276.398 82.7556C276.441 82.6679 276.441 82.5364 276.441 82.4048C276.441 82.1417 276.354 81.7909 276.398 81.3963C276.398 81.177 276.485 80.9577 276.661 80.7385C276.748 80.6508 276.836 80.5631 276.924 80.4754C277.055 80.4315 277.187 80.3438 277.318 80.3438C277.625 80.3438 277.845 80.5192 277.932 80.6946C278.108 80.87 278.152 81.0454 278.152 81.2209Z" fill="#1D2939"/>
<path d="M262.453 78.546C262.628 78.9406 262.628 79.3791 262.541 79.8176C262.453 80.2561 262.278 80.6508 261.971 81.0016C261.883 81.1331 261.839 81.1331 261.839 81.2647C261.839 81.3524 261.883 81.4839 261.971 81.6593C262.058 81.7909 262.146 81.9663 262.278 82.0979C262.409 82.2294 262.541 82.4048 262.716 82.4487C262.497 82.5364 262.278 82.4925 262.058 82.4048C261.839 82.3171 261.664 82.1856 261.488 82.054C261.313 81.8786 261.181 81.6593 261.137 81.3524C261.137 81.2647 261.137 81.2208 261.137 81.1331C261.137 81.0454 261.181 80.9577 261.181 80.9139C261.225 80.8262 261.225 80.7823 261.269 80.6946C261.313 80.6508 261.357 80.5631 261.401 80.5192C261.839 79.993 262.146 79.3353 262.453 78.546Z" fill="#1D2939"/>
<path d="M264.426 84.7727C264.426 84.7727 266.049 84.992 267.233 83.9834" stroke="#1D2939" stroke-width="1.8" stroke-miterlimit="10" stroke-linecap="round" stroke-linejoin="round"/>
<path d="M266.312 75.2133C266.224 74.9502 266.356 74.5556 266.487 74.3802C266.838 73.9417 267.978 73.8978 268.855 74.4679C269.732 74.9941 270.083 75.8273 269.82 75.915C269.425 76.0465 269.031 75.5203 268.11 75.4326C267.189 75.301 266.487 75.6957 266.312 75.2133Z" fill="#1D2939"/>
<path d="M261.795 75.0818C262.014 75.1256 262.234 74.9941 262.234 74.7748C262.278 74.4679 262.278 74.1171 262.146 73.8978C261.883 73.5031 261.181 73.9417 260.962 74.2486C260.743 74.5556 260.83 75.0818 260.962 75.0818C261.05 75.0818 261.444 74.9941 261.795 75.0818Z" fill="#1D2939"/>
<path d="M267.189 79.3353C267.54 79.3791 267.803 79.116 267.847 78.7652L267.891 78.4144C267.935 78.0636 267.671 77.8005 267.321 77.7567C266.97 77.7128 266.707 77.9759 266.663 78.3267L266.619 78.6775C266.619 79.0283 266.838 79.3353 267.189 79.3353Z" fill="#1D2939"/>
<path d="M261.532 78.8968C261.883 78.9406 262.146 78.6775 262.19 78.3267L262.234 77.9759C262.278 77.6251 262.015 77.362 261.664 77.3182C261.313 77.2743 261.05 77.5374 261.006 77.8882L260.962 78.239C260.962 78.5898 261.225 78.8529 261.532 78.8968Z" fill="#1D2939"/>
<path d="M201.633 147.172L204.177 206.633C204.221 207.291 203.738 207.861 203.124 207.861C202.598 207.861 202.116 207.379 202.072 206.765L197.643 147.128H201.633V147.172Z" fill="#475467"/>
<path d="M207.115 140.2L209.527 196.767C209.57 197.425 209.088 197.951 208.518 197.951C207.992 197.951 207.553 197.512 207.509 196.942L203.3 140.2H207.115Z" fill="#475467"/>
<path d="M161.773 147.216L153.792 206.195C153.705 206.853 154.143 207.467 154.713 207.51C155.24 207.554 155.766 207.116 155.853 206.546L165.72 147.567L161.773 147.216Z" fill="#475467"/>
<path d="M215.008 84.115C215.008 84.115 217.595 85.299 215.359 95.6916C213.122 106.084 209 119.853 209.57 135.42C210.097 150.987 199.923 157.433 183.216 156.249C166.509 155.065 192.732 107.882 192.732 107.882C192.732 107.882 211.544 79.8615 215.008 84.115Z" fill="#475467"/>
<path d="M170.192 87.2723C170.631 85.3428 171.552 82.2295 175.016 80.9578C178.48 79.6861 214.876 80.3 215.358 84.8166C215.797 89.2894 206.325 110.381 206.369 125.466C206.413 140.507 209.088 153.048 191.328 155.548C173.569 158.047 154.538 154.364 156.467 148.312C158.397 142.305 164.273 134.148 166.07 117.529C167.868 100.91 168.57 94.7268 170.192 87.2723Z" fill="white"/>
<path d="M161.949 135.552C161.949 135.552 148.575 152.303 148.18 157.872C147.785 163.441 170.149 163.221 170.193 162.081C170.281 160.941 173.964 154.451 175.718 154.32C176.858 154.232 178.612 154.144 178.919 155.547C179.358 157.521 178.919 161.643 178.919 161.643L198.169 170.676L200.055 162.651C200.055 162.651 203.3 157.433 203.3 148.838C203.3 140.244 200.801 127.571 200.801 127.571C200.801 127.571 164.141 131.43 161.949 135.552Z" fill="#1D2939"/>
<path d="M177.735 216.324C177.735 216.324 176.551 217.114 176.288 219.087C176.025 221.06 174.972 223.998 174.271 226.41C173.569 228.822 171.508 233.514 172.56 234.303C174.051 235.487 177.998 236.32 182.558 236.715C187.119 237.109 189.311 236.846 190.013 235.531C190.671 234.215 189.224 226.673 188.961 223.823C188.697 220.972 188.961 217.991 188.434 216.982C187.908 216.017 179.84 213.606 177.735 216.324Z" fill="#1D2939"/>
<path d="M161.554 213.781C161.554 213.781 161.028 214.614 160.502 216.368C159.976 218.078 155.328 225.27 155.371 227.55C155.459 229.874 159.844 229.874 161.554 229.962C163.615 230.049 168.833 229.655 170.544 228.471C172.254 227.287 172.298 223.209 172.429 221.893C172.692 219.262 172.648 217.684 172.035 213.737C171.859 212.465 169.93 212.115 168.877 212.86C167.825 213.562 162.344 212.071 161.554 213.781Z" fill="#1D2939"/>
<path d="M178.437 211.106C178.437 211.106 177.648 216.851 177.56 217.552C177.472 218.21 178.744 219.788 182.427 220.578C185.585 221.279 187.47 220.095 187.777 219.657C188.084 219.218 189.531 211.895 190.013 210.229C190.496 208.607 179.445 209.133 178.437 211.106Z" fill="#FFE7D0"/>
<path d="M160.502 209.878C160.502 209.878 161.686 213.913 161.686 214.439C161.686 214.965 163.703 216.061 166.509 215.973C169.272 215.886 171.684 214.351 171.684 213.606C171.684 212.86 170.851 205.712 170.851 205.712C170.851 205.712 160.765 207.861 160.502 209.878Z" fill="#FFE7D0"/>
<path d="M176.814 226.541C176.814 226.541 182.208 224.744 187.294 228.953" stroke="white" stroke-width="1.8" stroke-miterlimit="10" stroke-linecap="round" stroke-linejoin="round"/>
<path d="M178.217 223.34C178.217 223.34 183.523 222.376 186.9 225.138" stroke="white" stroke-width="1.8" stroke-miterlimit="10" stroke-linecap="round" stroke-linejoin="round"/>
<path d="M177.779 218.648C177.779 218.648 178.656 219.175 179.665 218.648C180.673 218.122 181.726 217.157 183.787 217.552C186.286 218.034 186.768 220.622 188.128 219.482C188.128 219.482 188.172 221.236 184.751 221.411C181.331 221.586 177.823 219.218 177.779 218.648Z" fill="#1D2939"/>
<path d="M161.51 214.526C161.51 214.526 161.993 215.053 162.782 214.307C163.571 213.606 163.483 212.729 165.632 212.422C167.035 212.246 168.219 213.255 169.272 214.088C170.324 214.921 171.377 213.781 171.596 212.816C171.596 212.816 172.297 215.316 171.333 216.544C170.631 217.464 167.912 216.807 166.29 216.851C164.711 216.894 161.159 216.105 161.159 216.105L161.51 214.526Z" fill="#1D2939"/>
<path d="M158.529 220.972C158.529 220.972 162.65 218.429 168.307 221.849" stroke="white" stroke-width="1.8" stroke-miterlimit="10" stroke-linecap="round" stroke-linejoin="round"/>
<path d="M160.502 218.341C160.502 218.341 164.098 215.798 169.053 219.218" stroke="white" stroke-width="1.8" stroke-miterlimit="10" stroke-linecap="round" stroke-linejoin="round"/>
<path d="M184.093 153.004C184.093 153.004 178.787 153.75 178.436 166.993C178.086 180.235 176.989 201.503 175.498 204.485C174.051 207.467 174.534 210.975 177.296 212.378C180.059 213.781 183.26 215.403 187.294 214.965C191.329 214.57 193.258 212.202 193.258 207.51C193.258 202.775 194.968 189.663 197.599 178.964C200.186 168.264 201.984 157.696 196.634 153.881C191.285 150.066 184.093 153.004 184.093 153.004Z" fill="#1D2939"/>
<path d="M152.652 151.952C152.652 151.952 144.672 152.96 149.188 172.737C153.705 192.47 156.731 202.906 156.029 205.932C155.327 208.957 157.52 210.58 160.019 211.15C162.475 211.72 167.299 211.632 170.017 210.098C172.78 208.563 173.043 206.107 171.947 201.415C170.85 196.723 170.587 177.955 170.456 171.509C170.324 165.063 171.947 154.1 164.141 150.943C156.292 147.742 152.652 151.952 152.652 151.952Z" fill="#1D2939"/>
<path d="M157.651 165.019C161.163 165.019 164.01 162.212 164.01 158.749C164.01 155.285 161.163 152.478 157.651 152.478C154.14 152.478 151.293 155.285 151.293 158.749C151.293 162.212 154.14 165.019 157.651 165.019Z" stroke="#63737A" stroke-width="1.8" stroke-miterlimit="10" stroke-linecap="round" stroke-linejoin="round"/>
<path d="M189.092 169.843C192.604 169.843 195.451 167.035 195.451 163.572C195.451 160.109 192.604 157.302 189.092 157.302C185.581 157.302 182.734 160.109 182.734 163.572C182.734 167.035 185.581 169.843 189.092 169.843Z" stroke="#63737A" stroke-width="1.8" stroke-miterlimit="10" stroke-linecap="round" stroke-linejoin="round"/>
<path d="M203.738 70.1705C203.738 70.1705 206.325 69.3374 207.158 67.4518C208.036 65.5662 207.904 59.8657 206.369 58.0678C204.834 56.2699 200.537 57.0592 197.818 56.2699C195.1 55.4806 193.214 53.7266 188.171 54.6913C183.128 55.656 178.48 60.1726 178.261 62.6283C178.042 65.0839 179.489 66.0925 178.963 67.6711C178.393 69.2058 177.735 70.7845 180.19 73.1962C182.646 75.608 181.681 77.1866 183.523 77.1866C185.365 77.1866 182.032 71.5738 184.4 66.7502C186.812 61.9705 202.423 64.7331 203.738 70.1705Z" fill="#1D2939"/>
<path d="M152.784 99.1996C152.784 99.1996 146.996 106.83 145.987 112.574C144.979 118.318 148.092 122.046 151.951 122.66C155.81 123.273 168.746 106.391 169.36 102.971C169.93 99.5504 154.626 96.5247 152.784 99.1996Z" fill="#FFE7D0"/>
<path d="M171.245 84.2904C171.245 84.2904 168.307 83.4573 161.247 89.5525C155.327 94.6391 150.635 99.5065 150.635 99.5065C150.635 99.5065 163.089 110.82 164.799 113.758C164.799 113.758 172.473 104.9 173.131 95.9547C173.789 86.9653 172.341 83.9396 171.245 84.2904Z" fill="#63737A"/>
<path d="M152.784 97.4894C152.784 97.4894 161.773 104.725 166.641 111.39" stroke="#1D2939" stroke-width="1.8" stroke-miterlimit="10" stroke-linecap="round" stroke-linejoin="round"/>
<path d="M167.781 88.0177C168.877 85.5621 171.07 83.7642 173.789 83.6765C176.42 83.5888 180.41 83.6326 186.198 84.0273C198.652 84.9043 208.255 88.4562 210.798 90.2979C213.342 92.1397 210.228 103.541 207.597 109.855C204.966 116.17 202.116 121.914 201.634 124.107C201.195 126.299 202.905 136.648 201.984 138.753C201.064 140.858 191.285 144.497 178.831 143.796C166.378 143.05 161.203 139.06 160.809 137.569C160.458 136.122 161.993 123.142 162.738 118.713C163.484 114.284 164.01 104.549 164.098 103.146C164.887 94.1129 166.641 90.561 167.781 88.0177Z" fill="#1D2939"/>
<path d="M222.155 108.408C219.042 103.058 208.255 113.714 208.518 116.082C208.518 116.082 210.447 120.116 210.447 120.555C210.447 120.993 208.518 132.087 207.202 138.314C206.808 140.244 205.624 142.392 204.177 144.453C207.597 145.725 211.061 146.777 214.613 147.479C219.261 139.367 224.611 126.957 225.444 123.887C226.979 118.143 225.269 113.758 222.155 108.408Z" fill="#FFE7D0"/>
<path d="M210.447 120.555C210.447 120.555 211.237 118.669 213.254 117.836" stroke="#E26E85" stroke-width="1.8" stroke-miterlimit="10" stroke-linecap="round" stroke-linejoin="round"/>
<path d="M210.798 90.2541C210.798 90.2541 214.35 92.2274 217.858 98.1472C221.322 104.067 224.085 109.461 224.085 109.461L208.649 117.529C208.649 117.529 204.176 110.206 202.335 106.917C200.493 103.628 200.318 96.8755 202.905 93.1044C205.404 89.3771 209.57 89.4209 210.798 90.2541Z" fill="#63737A"/>
<path d="M207.202 115.205C207.202 115.205 216.192 109.285 222.813 107.093" stroke="#1D2939" stroke-width="1.8" stroke-miterlimit="10" stroke-linecap="round" stroke-linejoin="round"/>
<path d="M206.325 140.77C206.325 140.77 200.142 141.384 198.739 142.173C197.38 142.962 195.231 147.742 195.406 148.181C195.538 148.619 196.897 148.181 196.897 148.181C196.897 148.181 196.722 149.101 197.774 149.101C198.827 149.101 199.002 148.663 199.002 148.663C199.002 148.663 198.827 149.803 200.055 149.759C201.282 149.672 203.826 147.479 203.826 147.479C203.826 147.479 202.466 149.891 203.3 150.461C204.089 151.031 205.931 149.014 206.194 148.619C206.457 148.224 213.429 152.434 216.104 144.673C216.104 144.673 211.061 139.191 206.325 140.77Z" fill="#FFE7D0"/>
<path d="M180.322 83.4134C180.322 83.4134 178.217 83.6326 177.779 84.0273C177.34 84.422 176.025 87.8423 177.779 91.3942C179.533 94.9022 184.62 96.7001 189.794 95.0776C194.968 93.499 197.161 88.5001 196.985 86.9653C196.81 85.4305 195.889 84.9482 194.004 84.4658C192.118 83.9834 180.322 83.4134 180.322 83.4134Z" fill="#63737A"/>
<path d="M182.822 72.4069C182.822 72.4069 182.953 76.4412 181.945 79.7299C181.506 81.2209 180.804 82.5802 180.366 83.3695C180.015 84.0273 179.752 84.7289 179.664 85.4305C179.401 87.2284 179.533 90.3418 182.822 91.8327C188.084 94.2006 193.609 89.8594 194.354 86.3952C194.354 86.3952 194.661 82.7995 195.451 81.3524C196.24 79.9492 185.365 71.0475 182.822 72.4069Z" fill="#FFE7D0"/>
<path d="M194.003 87.4038C194.179 87.053 194.266 86.7022 194.354 86.3952C194.354 86.3952 194.398 85.6936 194.573 84.7728C190.934 84.1588 187.733 82.054 185.759 79.2037C186.023 83.5011 189.706 86.7899 194.003 87.4038Z" fill="#E26E85"/>
<path d="M149.802 121.958C149.802 121.958 151.951 124.37 161.51 121.958C171.026 119.546 183.392 112.881 185.233 112.223C187.075 111.522 187.777 111.872 189.75 111.872C194.442 111.96 196.371 111.522 196.985 111.215C198.213 110.601 198.783 109.68 198.564 108.891C198.345 108.101 199.003 107.882 199.134 107.18C199.353 105.865 198.871 105.689 199.003 105.602C199.134 105.514 200.45 105.119 200.713 104.769C201.37 103.76 200.844 103.102 200.844 103.102C200.844 103.102 202.511 102.664 204.484 102.488C206.457 102.313 207.641 101.611 207.071 100.91C206.501 100.208 202.642 100.427 200.143 100.427C197.643 100.427 196.766 100.471 196.591 100.384C195.626 100.077 193.74 99.5065 192.82 99.5942C191.899 99.6819 190.846 100.427 189.048 101.392C187.251 102.357 185.233 103.146 182.602 103.804C180.585 104.33 167.035 105.383 158.66 106.961C157.476 107.18 156.38 107.4 155.459 107.663C154.319 107.97 153.398 108.277 152.784 108.584C148.224 111.039 144.233 117.485 149.802 121.958Z" fill="#FFE7D0"/>
<path d="M200.8 103.102C200.8 103.102 199.66 102.927 199.265 102.839C198.827 102.751 198.213 102.751 198.213 102.751" stroke="#E26E85" stroke-width="1.8" stroke-miterlimit="10" stroke-linecap="round" stroke-linejoin="round"/>
<path d="M199.002 105.602C199.002 105.602 198.213 105.821 197.906 105.953" stroke="#E26E85" stroke-width="1.8" stroke-miterlimit="10" stroke-linecap="round" stroke-linejoin="round"/>
<path d="M198.564 108.408C198.564 108.408 197.731 108.891 197.38 109.022" stroke="#E26E85" stroke-width="1.8" stroke-miterlimit="10" stroke-linecap="round" stroke-linejoin="round"/>
<path d="M185.233 112.223C181.857 108.233 183.567 103.541 183.567 103.541L179.796 104.242C177.647 109.548 181.462 114.021 181.462 114.021L185.233 112.223Z" fill="#1D2939"/>
<path d="M196.547 100.384C196.547 100.384 194.179 100.427 193.784 100.603" stroke="#E26E85" stroke-width="1.8" stroke-miterlimit="10" stroke-linecap="round" stroke-linejoin="round"/>
<path d="M158.66 106.961C157.476 107.18 156.38 107.4 155.459 107.663C154.319 107.97 153.398 108.277 152.784 108.584" stroke="#E26E85" stroke-width="1.8" stroke-miterlimit="10" stroke-linecap="round" stroke-linejoin="round"/>
<path d="M183.479 108.408C183.479 107.136 182.471 106.128 181.199 106.128C179.927 106.128 178.919 107.136 178.919 108.408C178.919 109.68 179.927 110.688 181.199 110.688C182.427 110.645 183.479 109.636 183.479 108.408Z" fill="white"/>
<path d="M204.264 62.716C204.264 62.716 205.229 65.6101 203.87 69.9075C202.51 74.2487 201.589 75.8273 200.449 79.2476C199.265 82.6679 196.546 85.6498 191.854 85.1674C186.943 84.6412 183.084 80.1685 182.865 74.5995C182.646 69.0304 182.164 60.348 188.785 58.8133C195.319 57.3223 203.124 61.225 204.264 62.716Z" fill="#FFE7D0"/>
<path d="M199.923 72.0123C199.923 72.5385 199.923 73.0208 200.011 73.5032C200.055 73.7224 200.098 73.9855 200.142 74.2048C200.186 74.3363 200.186 74.424 200.23 74.5556L200.274 74.731L200.318 74.9503C200.405 75.2572 200.405 75.5642 200.318 75.915C200.186 76.2219 199.967 76.5289 199.704 76.6604C199.178 76.9674 198.608 77.0112 198.081 76.8797C198.564 76.6604 199.046 76.4412 199.309 76.1781C199.616 75.8711 199.66 75.5642 199.528 75.1695L199.485 75.038L199.441 74.8187C199.397 74.6871 199.397 74.5556 199.353 74.424C199.309 74.1609 199.309 73.854 199.309 73.5909C199.441 72.977 199.616 72.4069 199.923 72.0123Z" fill="#1D2939"/>
<path d="M184.005 69.6443C184.005 69.6443 185.452 69.2935 186.373 65.4785C186.373 65.4785 186.68 64.6015 188.215 65.7855C189.706 66.9695 192.293 68.8989 196.766 66.7941C201.238 64.6892 201.809 63.9876 202.422 64.7331C202.422 64.7331 203.08 68.0657 205.36 67.0133C207.641 66.0047 206.413 60.0411 198.871 58.1117C191.328 56.1822 185.978 56.84 183.567 61.0496C181.111 65.3031 182.076 69.3812 184.005 69.6443Z" fill="#1D2939"/>
<path d="M197.774 68.2411C198.037 67.9342 198.301 67.2326 197.95 66.7502C197.467 66.0047 194.179 65.4785 193.389 66.1363C192.6 66.794 194.573 66.8817 195.494 67.3202C196.415 67.8026 197.511 68.5481 197.774 68.2411Z" fill="#1D2939"/>
<path d="M201.852 70.1267C201.94 69.8636 202.203 69.5566 202.51 69.4251C202.993 69.2058 204.001 70.2144 203.826 70.8721C203.65 71.5299 203.168 70.7844 202.729 70.6967C202.291 70.5213 201.721 70.3898 201.852 70.1267Z" fill="#1D2939"/>
<path d="M195.275 70.7845C195.407 70.4337 195.231 70.039 194.837 69.9074C194.486 69.7759 194.091 69.9513 193.96 70.346L193.872 70.5652L195.144 71.0475L195.275 70.7845Z" fill="#1D2939"/>
<path d="M201.852 73.2401C201.984 72.8893 201.809 72.4946 201.414 72.3631C201.063 72.2315 200.668 72.4069 200.537 72.8016L200.449 73.0208L201.721 73.5032L201.852 73.2401Z" fill="#1D2939"/>
<path d="M184.795 70.3898C184.795 70.3898 184.049 67.408 181.857 67.4518C179.664 67.4957 178.656 73.4593 183.698 74.3802" fill="#FFE7D0"/>
<path d="M181.506 70.1705C181.506 69.9513 181.55 69.7759 181.725 69.5566C181.813 69.4689 181.944 69.3812 182.12 69.3812C182.251 69.3812 182.427 69.4251 182.514 69.4689C182.558 69.4689 182.646 69.5566 182.69 69.6005C182.777 69.6443 182.777 69.732 182.821 69.7759C182.865 69.8636 182.865 69.9074 182.909 69.9513C182.909 69.9951 182.953 70.0829 182.953 70.1267C182.997 70.346 182.997 70.5214 182.997 70.6968C182.997 71.0476 182.997 71.3984 182.997 71.7053C182.997 71.8369 183.041 71.9684 183.128 72.1C183.216 72.2315 183.347 72.3192 183.523 72.4069C183.347 72.4946 183.128 72.4946 182.909 72.4069C182.69 72.3192 182.514 72.1 182.427 71.8807C182.251 71.4861 182.207 71.0914 182.207 70.6968C182.207 70.346 182.164 69.9513 182.164 69.9513C182.076 69.8636 182.032 69.8197 181.9 69.8197C181.813 69.9074 181.681 70.039 181.506 70.1705Z" fill="#1D2939"/>
<path d="M195.143 79.73C195.319 79.4669 195.494 79.2038 195.582 78.9845C195.757 78.5899 195.582 78.1514 195.187 78.0198C194.749 77.8444 194.179 77.5374 193.521 77.0112C192.161 75.915 191.548 76.8797 191.635 78.1075C192.951 78.239 194.135 79.0722 195.143 79.73Z" fill="#1D2939"/>
<path d="M191.635 78.0637C191.723 79.1161 192.293 80.3877 193.433 80.5631C194.179 80.6947 194.749 80.2562 195.143 79.73C194.135 79.0722 192.951 78.2391 191.635 78.0637Z" fill="#E26E85"/>
<path d="M104.066 150.68L97.6201 240.574C97.5763 241.319 98.1902 241.977 98.9356 241.977C99.6372 241.977 100.207 241.451 100.251 240.793L108.013 150.724H104.066V150.68Z" fill="#475467"/>
<path d="M364.231 150.68L370.677 240.574C370.721 241.319 370.107 241.977 369.362 241.977C368.66 241.977 368.09 241.451 368.046 240.793L360.285 150.724H364.231V150.68Z" fill="#475467"/>
<path d="M377.956 148.794H90.3408L123.229 135.552H345.025L377.956 148.794Z" fill="white"/>
<path d="M378 148.794H90.3411V152.083H378V148.794Z" fill="#475467"/>
<path d="M204.702 133.359H223.163C223.645 133.359 224.128 133.491 224.566 133.798L241.317 144.98C241.887 145.33 241.624 146.207 240.966 146.207H214.261C213.647 146.207 213.077 145.944 212.683 145.418L204.176 134.455C203.825 134.017 204.132 133.359 204.702 133.359Z" fill="#63737A"/>
<path d="M216.104 142.743H233.337" stroke="#F8AB5D" stroke-width="1.8" stroke-miterlimit="10" stroke-linecap="round" stroke-linejoin="round"/>
<path d="M228.557 139.454L224.961 136.736C224.786 136.604 224.61 136.56 224.435 136.56H219.743C219.568 136.56 219.524 136.736 219.611 136.867L222.33 139.498C222.506 139.674 222.725 139.761 222.944 139.761H228.469C228.645 139.761 228.689 139.586 228.557 139.454Z" fill="#1D2939"/>
<path d="M218.822 139.761H214.086" stroke="#F8AB5D" stroke-width="1.8" stroke-miterlimit="10" stroke-linecap="round" stroke-linejoin="round"/>
<path d="M217.287 137.963H213.034" stroke="#F8AB5D" stroke-width="1.8" stroke-miterlimit="10" stroke-linecap="round" stroke-linejoin="round"/>
<path d="M311.302 148.005L306.04 148.4C305.602 148.444 305.119 148.4 304.681 148.268L280.651 141.691C280.124 141.559 279.73 141.033 279.73 140.463L320.598 139.454L311.302 148.005Z" fill="#63737A"/>
<path d="M305.426 146.514L315.599 119.459C315.95 118.494 316.915 117.836 317.924 117.88L359.669 118.669C360.59 118.669 361.248 119.634 360.853 120.511L351.206 144.146C350.855 145.023 350.022 145.593 349.101 145.681L306.742 148.356C305.821 148.356 305.119 147.391 305.426 146.514Z" fill="#1D2939"/>
<path d="M306.917 148.356L306.04 148.4C305.602 148.444 305.119 148.4 304.681 148.268L280.651 141.691C280.124 141.515 279.73 141.033 279.73 140.463L306.084 146.777L306.917 148.356Z" fill="#1D2939"/>
<path d="M340.726 132.482C340.244 134.148 338.533 135.508 336.867 135.508C335.201 135.508 334.236 134.148 334.718 132.482C335.201 130.816 336.911 129.456 338.577 129.456C340.244 129.413 341.208 130.816 340.726 132.482Z" fill="#63737A"/>
<path d="M350.023 100.91L309.592 96.1739C308.408 96.0424 307.707 94.9899 307.97 93.806L317.31 51.0956C317.529 50.087 318.494 49.2539 319.546 49.1223L361.731 44.6934C362.827 44.5619 363.66 45.4389 363.441 46.4913L352.259 99.2873C351.996 100.296 351.031 101.041 350.023 100.91Z" fill="#63737A"/>
<path d="M348.4 100.91L307.619 96.1301C306.435 95.9985 305.69 94.9461 305.953 93.7621L315.381 50.7448C315.6 49.6924 316.565 48.8592 317.661 48.7715L360.152 44.2988C361.248 44.1672 362.082 45.0442 361.862 46.0966L350.549 99.3311C350.373 100.296 349.365 101.041 348.4 100.91Z" fill="#1D2939"/>
<path d="M333.359 59.6464L318.012 60.3919C317.617 60.3919 317.31 60.0849 317.398 59.6903L318.626 53.9897C318.713 53.6827 318.976 53.4196 319.327 53.3758L334.806 52.0603C335.245 52.0164 335.508 52.3672 335.42 52.7619L334.061 59.0763C334.017 59.3395 333.71 59.6026 333.359 59.6464Z" fill="#475467"/>
<path d="M313.057 91.6135C312.706 91.5696 312.487 91.2627 312.574 90.9557L314.855 80.2562C314.942 79.9054 315.249 79.6423 315.6 79.6861C315.951 79.73 316.17 79.9931 316.082 80.3439L313.802 91.0872C313.758 91.3942 313.408 91.6573 313.057 91.6135Z" fill="#F8AB5D"/>
<path d="M318.494 91.4819L321.213 78.853C321.301 78.5021 321.608 78.239 321.958 78.2829H322.046C322.397 78.2829 322.616 78.5898 322.572 78.9406L319.854 91.5696C319.766 91.9204 319.415 92.1835 319.064 92.1397H318.977C318.626 92.1397 318.407 91.8327 318.494 91.4819Z" fill="#1570EF"/>
<path d="M324.414 91.9642L327.483 77.5374C327.571 77.1428 327.922 76.8797 328.317 76.8797C328.711 76.8797 328.974 77.2305 328.887 77.6251L325.817 92.0519C325.729 92.4466 325.335 92.7097 324.94 92.7097C324.589 92.7097 324.326 92.3589 324.414 91.9642Z" fill="#475467"/>
<path d="M346.339 64.7331L347.348 66.8817C346.12 68.285 344.629 69.162 343.226 69.162C340.507 69.162 339.06 65.8732 339.937 61.7951C340.814 57.717 343.708 54.2528 346.471 54.0335C347.918 53.902 349.014 54.6475 349.672 55.963L347.742 58.2432C347.348 57.4539 346.69 56.9715 345.857 57.0592C344.191 57.1908 342.437 59.2518 341.867 61.7512C341.34 64.2069 342.217 66.224 343.884 66.1801C344.761 66.0924 345.638 65.5662 346.339 64.7331Z" fill="#475467"/>
<path d="M350.11 61.3128C349.628 63.4614 348.619 65.4347 347.391 66.8379L346.383 64.6892C347.128 63.8561 347.742 62.6721 348.005 61.4005C348.268 60.1288 348.181 58.9887 347.786 58.1994L349.716 55.9191C350.373 57.2785 350.549 59.1641 350.11 61.3128Z" fill="#1570EF"/>
<path d="M334.631 86.0005C333.754 90.0786 335.201 93.3674 337.92 93.3674C339.323 93.3674 340.814 92.4904 342.042 91.0872L341.033 88.9385C340.288 89.7717 339.411 90.2979 338.578 90.3417C336.911 90.3856 336.034 88.3685 336.561 85.9128C336.78 84.8166 337.306 83.7642 337.92 82.9749L336.999 80.9577C335.903 82.3609 335.026 84.115 334.631 86.0005Z" fill="#475467"/>
<path d="M340.551 81.2647C341.384 81.2209 342.086 81.6594 342.437 82.4487L344.366 80.1684C343.708 78.8529 342.568 78.1075 341.165 78.239C339.674 78.3706 338.183 79.423 336.955 80.9577L337.876 82.9749C338.666 82.0102 339.586 81.3086 340.551 81.2647Z" fill="#1570EF"/>
<path d="M344.761 85.6059C344.278 87.7546 343.27 89.7278 342.042 91.1311L341.033 88.9824C341.779 88.1492 342.393 86.9653 342.656 85.6936C342.919 84.4219 342.831 83.2818 342.437 82.4925L344.366 80.2123C345.024 81.5278 345.243 83.4572 344.761 85.6059Z" fill="#F8AB5D"/>
<path d="M316.872 64.2068L327.659 63.8122" stroke="#63737A" stroke-width="1.8" stroke-miterlimit="10" stroke-linecap="round" stroke-linejoin="round"/>
<path d="M316.258 66.6625L331.693 66.4871" stroke="#63737A" stroke-width="1.8" stroke-miterlimit="10" stroke-linecap="round" stroke-linejoin="round"/>
<path d="M315.775 69.2058H331.386" stroke="#63737A" stroke-width="1.8" stroke-miterlimit="10" stroke-linecap="round" stroke-linejoin="round"/>
<path d="M356.118 48.5523C356.205 48.2015 356.074 47.9384 355.811 47.9384C355.548 47.9822 355.284 48.2892 355.241 48.64C355.153 48.9908 355.284 49.2539 355.548 49.2539C355.811 49.21 356.074 48.9031 356.118 48.5523Z" fill="#63737A"/>
<path d="M358.661 48.333C358.749 47.9822 358.573 47.7191 358.354 47.7191C358.091 47.763 357.828 48.0699 357.74 48.4207C357.652 48.7715 357.828 49.0346 358.047 49.0346C358.354 48.9908 358.617 48.6838 358.661 48.333Z" fill="#63737A"/>
<path d="M237.415 129.369C237.415 129.369 237.59 134.894 245.571 135.42C253.508 135.99 268.987 134.192 272.013 133.359C275.038 132.526 274.863 127.659 272.933 126.299C271.004 124.94 259.428 124.326 253.508 123.449C252.148 123.23 250.57 122.967 248.947 122.835C247.544 122.703 246.141 122.616 244.781 122.66C240.791 122.835 237.458 124.37 237.415 129.369Z" fill="#1849A9"/>
<path d="M237.327 127.834C237.327 127.834 237.327 126.694 239.037 127.001C242.764 127.702 245.921 135.727 242.106 134.718" stroke="#1D2939" stroke-width="1.8" stroke-miterlimit="10" stroke-linecap="round" stroke-linejoin="round"/>
<path d="M253.464 123.449C252.104 123.23 250.526 122.967 248.903 122.835C247.5 122.703 246.097 122.616 244.737 122.66" stroke="#1D2939" stroke-width="1.8" stroke-miterlimit="10" stroke-linecap="round" stroke-linejoin="round"/>
<path d="M292.622 97.8402C294.069 98.3226 295.121 99.4627 296.963 105.032C299.375 112.311 302.444 127.746 300.866 131.912C299.287 136.078 296.13 138.227 285.518 138.709C274.906 139.191 264.601 138.358 263.242 138.358C261.883 138.358 259.603 133.359 261.05 130.07C261.05 130.07 270.039 127.878 275.126 126.518C280.212 125.159 285.825 123.712 288.149 123.449C288.149 123.449 284.378 114.196 283.15 110.951C281.922 107.707 282.931 102.181 285.825 99.6819C288.675 97.2263 291.394 97.4455 292.622 97.8402Z" fill="#1849A9"/>
<path d="M288.105 123.449C288.105 123.449 292.447 122.572 295.034 123.449" stroke="#1D2939" stroke-width="1.8" stroke-miterlimit="10" stroke-linecap="round" stroke-linejoin="round"/>
<path d="M301.304 129.369C301.304 129.369 300.383 127.176 296.656 129.632C293.718 131.561 292.841 137.35 296.042 136.999" stroke="#1D2939" stroke-width="1.8" stroke-miterlimit="10" stroke-linecap="round" stroke-linejoin="round"/>
<path d="M261.927 130.158C261.927 130.158 259.603 130.377 257.235 130.377C254.867 130.377 251.666 130.772 250.92 131.123C250.175 131.43 242.633 139.016 242.808 140.024C242.94 141.033 244.387 140.375 245.614 139.542C246.798 138.665 249.122 136.429 249.605 136.122C249.605 136.122 248.991 137.525 248.421 139.63C247.851 141.735 247.281 143.839 247.851 144.19C248.596 144.629 249.298 143.883 249.517 143.445C249.517 143.445 249.473 144.541 250.35 144.585C251.227 144.629 252.06 142.962 252.762 141.559C253.508 140.156 254.998 138.314 254.998 138.314C254.998 138.314 254.297 140.551 254.034 141.778C253.771 143.006 253.595 144.453 254.253 144.585C255.262 144.804 256.182 141.822 256.752 140.682C257.366 139.498 259.559 140.287 261.181 139.279C262.848 138.227 263.725 137.963 263.725 137.963C263.725 137.963 264.821 136.867 264.821 134.499C264.821 132.087 262.848 130.07 261.927 130.158Z" fill="#FFE7D0"/>
<path d="M249.429 143.489C249.429 143.489 251.534 137.35 252.411 136.166C253.288 134.982 253.595 134.894 253.858 134.719" stroke="#E26E85" stroke-width="1.8" stroke-miterlimit="10" stroke-linecap="round" stroke-linejoin="round"/>
<path d="M249.517 136.166C249.517 136.166 249.867 135.464 250.438 134.412C250.745 133.885 251.402 133.359 251.402 133.359" stroke="#E26E85" stroke-width="1.8" stroke-miterlimit="10" stroke-linecap="round" stroke-linejoin="round"/>
<path d="M254.91 138.314C254.91 138.314 255.524 136.823 256.138 136.648" stroke="#E26E85" stroke-width="1.8" stroke-miterlimit="10" stroke-linecap="round" stroke-linejoin="round"/>
<path d="M268.899 125.685C268.899 125.685 270.653 125.115 272.275 124.37C273.898 123.624 274.556 123.317 275.827 123.23C277.099 123.098 281.089 123.098 281.659 123.449C282.229 123.8 282.975 125.466 283.37 126.299C283.764 127.132 282.492 130.421 282.492 130.421C282.492 130.421 283.063 133.315 282.361 133.622C281.922 133.798 281.528 133.71 280.958 132.175C280.958 132.175 281.352 133.491 280.563 133.578C279.774 133.666 278.897 131.386 278.327 130.377C277.757 129.369 276.66 128.097 276.66 128.097C276.66 128.097 277.143 129.676 277.23 130.202C277.318 130.772 277.669 132.087 277.45 132.614C277.23 133.14 276.441 132.438 275.652 130.64C274.863 128.843 274.599 128.229 274.117 128.272C271.398 128.536 271.574 127.922 270.258 127.834L267.364 128.579C267.32 128.536 267.013 126.782 268.899 125.685Z" fill="#FFE7D0"/>
<path d="M280.958 132.131C280.958 132.131 280.081 129.281 279.774 128.404C279.467 127.571 278.458 125.992 278.458 125.992" stroke="#E26E85" stroke-width="1.8" stroke-miterlimit="10" stroke-linecap="round" stroke-linejoin="round"/>
<path d="M282.493 130.377C282.493 130.377 281.966 127.308 281.747 126.562C281.528 125.861 281.177 125.203 281.177 125.203" stroke="#E26E85" stroke-width="1.8" stroke-miterlimit="10" stroke-linecap="round" stroke-linejoin="round"/>
<path d="M276.617 128.053C276.617 128.053 276.354 127.176 276.222 126.913" stroke="#E26E85" stroke-width="1.8" stroke-miterlimit="10" stroke-linecap="round" stroke-linejoin="round"/>
</g>
</svg>
