<svg width="324" height="62" viewBox="0 0 324 62" fill="none" xmlns="http://www.w3.org/2000/svg">
<path fill-rule="evenodd" clip-rule="evenodd" d="M17.9771 21.9684C11.9446 21.9684 7.73082 26.4647 7.73082 32.9024C7.73082 39.2983 11.9446 43.7651 17.9771 43.7651C20.6464 43.7651 23.0798 42.7605 25.2092 40.7796C27.3031 38.7586 28.3612 36.1107 28.3612 32.9024C28.3612 29.6924 27.3031 27.0439 25.2156 25.0306C23.1093 22.999 20.6735 21.9684 17.9771 21.9684ZM16.3854 50.5935C11.96 50.5935 8.20007 48.9525 4.88939 45.5763C1.59934 42.2208 0 38.0751 0 32.9024C0 27.7274 1.59934 23.5817 4.88939 20.2279C8.13463 16.8511 12.0012 15.1412 16.3854 15.1412C20.8851 15.1412 24.5 16.3415 27.4375 18.812L28.3612 19.5886V16.1788H36.3685V49.5559H30.4976C29.3192 49.5559 28.3612 48.5978 28.3612 47.4206V46.2522L27.4481 46.9822C24.4528 49.3791 20.7307 50.5935 16.3854 50.5935ZM90.0408 49.556V30.4132C90.0408 25.6854 87.0213 22.384 82.699 22.384C77.2431 22.384 74.114 26.4437 74.114 33.5236V49.556H66.1061V30.4132C66.1061 25.6854 63.0878 22.384 58.7656 22.384C53.3179 22.384 50.3179 26.34 50.3179 33.5236V49.556H42.3106V16.179H48.0448C49.2981 16.179 50.3179 17.1984 50.3179 18.451V19.8068L51.277 18.8481C53.7388 16.3882 57.0719 15.1414 61.1867 15.1414C65.9835 15.1414 69.6432 16.965 72.0649 20.5622L72.4923 21.1962L72.9704 20.5993C75.869 16.978 79.9572 15.1414 85.1207 15.1414C88.6395 15.1414 91.6937 16.4118 94.2003 18.9177C96.7093 21.3594 97.9791 24.5971 97.9791 28.5466V49.556H90.0408ZM103.921 61.3106V16.1788H109.723C110.939 16.1788 111.927 17.1675 111.927 18.3819V19.5886L112.851 18.812C115.789 16.3415 119.404 15.1412 123.903 15.1412C128.242 15.1412 132.086 16.8511 135.326 20.2238C138.621 23.5823 140.289 27.847 140.289 32.9024C140.289 38.0751 138.689 42.2208 135.4 45.5763C132.089 48.9525 128.329 50.5935 123.903 50.5935C119.559 50.5935 115.837 49.3791 112.841 46.9822L111.927 46.2522V61.3106H103.921ZM122.312 21.9684C119.613 21.9684 117.178 22.999 115.074 25.0306C112.986 27.0445 111.927 29.693 111.927 32.9024C111.927 36.1101 112.986 38.7586 115.074 40.7725C117.208 42.7605 119.641 43.7651 122.312 43.7651C128.345 43.7651 132.559 39.2983 132.559 32.9024C132.559 26.4647 128.345 21.9684 122.312 21.9684ZM146.23 49.5556V5.88129e-05H154.238V49.5556H146.23ZM166.164 9.66235C163.283 9.66235 161.192 7.65962 161.192 4.89976C161.192 2.19823 163.422 0.000471183 166.164 0.000471183C168.905 0.000471183 171.136 2.19823 171.136 4.89976C171.136 7.61484 168.999 9.66235 166.164 9.66235ZM162.16 49.556V16.179H170.167V49.556H162.16ZM254.59 49.556V31.4844C254.59 26.8703 250.834 23.1164 246.218 23.1164C241.601 23.1164 237.845 26.8703 237.845 31.4844V49.556H229.866V31.4844C229.866 22.473 237.201 15.1414 246.217 15.1414C246.37 15.1414 246.524 15.1438 246.678 15.1479C255.44 15.3877 262.569 22.8742 262.569 31.8361V49.556H254.59ZM200.078 61.3103L205.369 49.0123L194.035 22.522H186.088V49.5562H178.081V22.522H173.778L175.69 16.1096H178.081V12.5054C178.081 4.90872 183.209 0 191.146 0H193.564L196.102 6.1331H191.711C188.4 6.1331 186.088 8.75332 186.088 12.5054V16.1096H200.233L209.728 39.0446L219.655 16.1096H228.598L209.024 61.3103H200.078Z" fill="#344054"/>
<path d="M290.142 29.8692V33.5475H271.681V29.8692H290.142ZM272.383 15.2027V49.3151H267.862V15.2027H272.383ZM294.078 15.2027V49.3151H289.58V15.2027H294.078Z" fill="#1570EF"/>
<path d="M299.236 15.2027H310.528C313.09 15.2027 315.253 15.5932 317.018 16.3742C318.799 17.1551 320.15 18.311 321.071 19.8416C322.008 21.3567 322.477 23.2232 322.477 25.4411C322.477 27.003 322.157 28.4322 321.516 29.7286C320.892 31.0094 319.986 32.1027 318.799 33.0086C317.627 33.8989 316.222 34.5627 314.582 35.0001L313.316 35.4921H302.703L302.656 31.8138H310.669C312.293 31.8138 313.644 31.5326 314.722 30.9703C315.8 30.3924 316.612 29.6193 317.159 28.6509C317.705 27.6825 317.979 26.6126 317.979 25.4411C317.979 24.1291 317.721 22.9811 317.206 21.9971C316.69 21.0131 315.878 20.2555 314.769 19.7245C313.676 19.1778 312.262 18.9045 310.528 18.9045H303.757V49.3151H299.236V15.2027ZM319.174 49.3151L310.88 33.8521L315.589 33.8286L324 49.034V49.3151H319.174Z" fill="#1570EF"/>
</svg>
